<?xml version="1.0" standalone="no"?><!DOCTYPE svg PUBLIC "-//W3C//DTD SVG 1.1//EN" "http://www.w3.org/Graphics/SVG/1.1/DTD/svg11.dtd"><svg t="1485170053693" class="icon" style="" viewBox="0 0 1024 1024" version="1.1" xmlns="http://www.w3.org/2000/svg" p-id="2037" xmlns:xlink="http://www.w3.org/1999/xlink" width="32" height="32"><defs><style type="text/css"></style></defs><path d="M704 0 320 0C248.768 0 192 57.152 192 127.616l0 768.768C192 966.72 249.28 1024 320 1024l384 0c71.168 0 128-57.152 128-127.616L832 127.616C832 57.28 774.72 0 704 0zM512 960c-35.328 0-64-28.672-64-64s28.672-64 64-64 64 28.672 64 64S547.328 960 512 960zM768 768 256 768 256 127.744C256 92.544 284.992 64 319.808 64l384.384 0C739.456 64 768 92.48 768 127.744L768 768z" p-id="2038" fill="#ffffff"></path></svg>